<?xml version="1.0" standalone="no"?>
<!DOCTYPE svg PUBLIC "-//W3C//DTD SVG 20010904//EN"
 "http://www.w3.org/TR/2001/REC-SVG-20010904/DTD/svg10.dtd">
<svg version="1.0" xmlns="http://www.w3.org/2000/svg"
 width="284.000000pt" height="284.000000pt" viewBox="0 0 284.000000 284.000000"
 preserveAspectRatio="xMidYMid meet">
<metadata>
Created by potrace 1.14, written by Peter Selinger 2001-2017
</metadata>
<g transform="translate(0.000000,284.000000) scale(0.100000,-0.100000)"
fill="#000000" stroke="none">
<path d="M533 2065 c0 -8 4 -12 9 -9 5 3 6 10 3 15 -9 13 -12 11 -12 -6z"/>
<path d="M1610 2060 c0 -5 5 -10 11 -10 5 0 7 5 4 10 -3 6 -8 10 -11 10 -2 0
-4 -4 -4 -10z"/>
<path d="M2096 2061 c-3 -5 2 -15 12 -22 15 -12 16 -12 5 2 -7 9 -10 19 -6 22
3 4 4 7 0 7 -3 0 -8 -4 -11 -9z"/>
<path d="M999 2058 c-5 -9 -5 -48 -1 -43 6 6 11 45 5 45 -2 0 -4 -1 -4 -2z"/>
<path d="M1673 2045 c0 -8 4 -12 9 -9 5 3 6 10 3 15 -9 13 -12 11 -12 -6z"/>
<path d="M1719 2058 c-8 -26 -5 -36 9 -31 11 5 13 3 7 -7 -6 -9 -4 -11 5 -5
10 6 10 11 -3 20 -9 7 -14 15 -10 18 3 4 3 7 0 7 -4 0 -7 -1 -8 -2z"/>
<path d="M1935 2050 c-3 -5 -4 -14 -1 -19 4 -5 1 -12 -4 -14 -6 -3 -5 -4 1 -3
7 1 13 12 14 24 2 24 -1 27 -10 12z"/>
<path d="M2199 2058 c-5 -9 -5 -48 -1 -43 6 6 11 45 5 45 -2 0 -4 -1 -4 -2z"/>
<path d="M2236 2047 c3 -10 9 -15 12 -12 3 3 0 11 -7 18 -10 9 -11 8 -5 -6z"/>
<path d="M679 2033 c-12 -16 -12 -17 2 -6 9 7 20 9 24 5 5 -4 5 -1 1 6 -9 16
-11 15 -27 -5z"/>
<path d="M770 2040 c0 -5 5 -10 11 -10 5 0 7 5 4 10 -3 6 -8 10 -11 10 -2 0
-4 -4 -4 -10z"/>
<path d="M944 2039 c-5 -8 -3 -9 6 -4 7 4 16 2 22 -6 8 -12 9 -12 6 0 -6 20
-24 25 -34 10z"/>
<path d="M1901 2036 c-9 -11 -9 -16 1 -22 7 -4 10 -4 6 1 -4 4 -3 14 3 22 6 7
9 13 6 13 -2 0 -10 -6 -16 -14z"/>
<path d="M1980 2045 c0 -2 6 -8 13 -14 10 -8 14 -7 14 2 0 8 -6 14 -14 14 -7
0 -13 -1 -13 -2z"/>
<path d="M2046 2038 c3 -4 9 -8 15 -8 5 0 9 4 9 8 0 5 -7 9 -15 9 -8 0 -12 -4
-9 -9z"/>
<path d="M2133 2031 c0 -11 5 -18 9 -15 4 3 5 11 1 19 -7 21 -12 19 -10 -4z"/>
<path d="M855 2031 c-3 -5 -2 -12 3 -15 5 -3 9 1 9 9 0 17 -3 19 -12 6z"/>
<path d="M1056 2023 c-6 -14 -5 -15 5 -6 7 7 10 15 7 18 -3 3 -9 -2 -12 -12z"/>
<path d="M513 2009 c-2 -23 3 -25 10 -4 4 8 3 16 -1 19 -4 3 -9 -4 -9 -15z"/>
<path d="M645 2019 c-4 -6 -5 -12 -2 -15 2 -3 7 2 10 11 7 17 1 20 -8 4z"/>
<path d="M746 2017 c3 -10 9 -15 12 -12 3 3 0 11 -7 18 -10 9 -11 8 -5 -6z"/>
<path d="M1110 2019 c0 -15 18 -19 23 -6 3 8 -1 14 -9 14 -8 0 -14 -4 -14 -8z"/>
<path d="M1336 2022 c-2 -4 -1 -14 4 -22 7 -11 9 -9 7 8 -1 24 -3 26 -11 14z"/>
<path d="M1795 2010 c6 -24 5 -24 -9 -6 -9 11 -16 15 -16 9 0 -15 36 -44 45
-36 4 5 5 3 1 -4 -4 -8 0 -11 14 -8 11 2 20 0 20 -6 0 -10 -35 -7 -46 4 -10
10 -36 9 -30 -1 6 -10 -30 -9 -40 1 -4 4 -14 1 -23 -6 -14 -10 -14 -10 -3 5
12 14 10 16 -10 11 -22 -4 -22 -4 -4 11 11 9 16 19 13 23 -4 4 -14 -3 -23 -15
-15 -21 -34 -22 -34 -1 0 6 4 7 10 4 6 -4 7 1 3 11 -5 15 -7 15 -17 -2 -6 -11
-19 -20 -28 -20 -21 -2 -24 12 -5 19 6 3 2 4 -10 4 -16 -1 -19 -5 -14 -17 10
-18 4 -40 -11 -40 -6 0 -8 6 -5 13 3 8 1 20 -5 28 -8 11 -9 10 -4 -3 6 -20 -9
-25 -18 -5 -3 6 -3 2 -1 -9 6 -23 -7 -32 -42 -29 -25 2 -30 -8 -28 -47 2 -22
-1 -26 -12 -17 -9 8 -13 8 -13 1 0 -6 4 -13 9 -17 6 -3 9 -14 8 -25 -1 -15 -4
-16 -15 -8 -9 8 -16 8 -25 -2 -7 -7 -7 -10 -2 -7 13 7 51 -21 41 -30 -4 -4
-12 0 -17 9 -5 10 -16 15 -23 12 -8 -3 -17 0 -21 5 -3 6 -11 8 -17 5 -7 -4 -8
-2 -4 4 4 6 14 8 24 5 15 -6 15 -4 4 9 -7 9 -22 15 -33 13 -11 -2 -17 0 -14 5
7 12 -33 53 -44 45 -5 -2 -14 2 -21 10 -10 12 -7 15 14 21 14 3 31 13 38 22
10 14 10 15 -2 5 -17 -15 -54 -17 -45 -3 3 6 1 10 -5 10 -7 0 -10 -6 -7 -14 8
-21 -19 -27 -49 -11 -15 8 -32 11 -37 8 -6 -4 -8 0 -4 10 4 11 1 15 -14 12
-10 -2 -19 1 -19 6 0 6 -4 7 -10 4 -5 -3 -10 2 -11 12 0 16 -1 16 -9 -2 -5
-11 -9 -16 -9 -11 -1 5 -7 3 -14 -3 -14 -11 -27 -5 -27 11 0 5 4 6 10 3 6 -4
7 1 3 11 -4 11 -8 13 -11 6 -2 -7 -8 -10 -13 -7 -5 4 -6 -2 -2 -11 4 -11 3
-15 -5 -10 -6 3 -13 2 -17 -3 -3 -6 4 -8 15 -6 11 2 18 1 16 -4 -3 -4 6 -7 19
-7 13 0 22 3 19 7 -2 4 4 6 13 4 10 -2 21 -4 26 -4 4 -1 7 -4 7 -9 0 -4 -29
-7 -64 -7 -60 0 -64 1 -60 21 5 25 -21 40 -41 24 -8 -6 -16 -6 -25 3 -12 10
-12 9 -1 -5 7 -10 17 -16 21 -13 5 3 10 0 13 -7 2 -7 3 -5 1 5 -1 10 3 16 9
14 10 -4 11 -35 2 -46 -2 -2 -18 7 -35 19 -24 17 -34 20 -43 11 -9 -9 -8 -11
4 -6 10 4 19 0 22 -8 6 -15 -9 -17 -30 -4 -6 4 -14 3 -18 -3 -4 -6 -12 -7 -18
-3 -17 11 -31 10 -40 -2 -5 -6 -7 -4 -4 5 2 8 10 14 16 12 7 -1 10 2 7 7 -4 5
2 14 11 20 10 6 12 11 5 11 -7 0 -20 -9 -29 -19 -16 -20 -33 -19 -33 0 0 6 5
7 12 3 7 -4 8 -3 4 5 -4 6 -11 9 -16 6 -4 -3 -10 0 -12 7 -3 7 -7 5 -11 -6 -4
-11 -3 -15 4 -10 7 4 9 -1 5 -17 -3 -13 -3 -18 0 -11 3 6 10 10 15 6 17 -10 9
-20 -15 -20 -17 0 -22 4 -18 15 3 9 1 12 -7 7 -6 -4 -19 -2 -27 5 -12 9 -17
10 -27 0 -9 -10 -9 -11 4 -6 9 3 22 -2 30 -12 7 -10 9 -15 5 -11 -5 4 -16 2
-25 -5 -14 -11 -14 -10 -2 6 14 17 13 18 -5 15 -10 -1 -23 -7 -27 -13 -5 -6
-6 -3 -3 8 9 26 13 43 9 35 -2 -4 -12 -4 -21 -1 -14 4 -15 3 -2 -6 8 -5 11
-13 7 -17 -3 -4 -13 -2 -20 4 -8 7 -18 8 -22 4 -5 -4 -5 2 -2 13 6 17 5 18 -5
4 -7 -9 -19 -14 -25 -12 -7 3 -13 0 -13 -5 0 -5 14 -8 30 -7 17 1 30 -1 30 -6
0 -10 -1 -10 -52 -13 -21 -1 -34 2 -31 7 3 5 0 7 -8 5 -8 -3 -22 -1 -31 3 -11
6 -19 5 -24 -3 -4 -6 -3 -8 4 -4 6 3 14 1 18 -6 4 -7 4 -10 -1 -6 -4 4 -15 2
-23 -5 -11 -8 -14 -8 -9 0 4 6 3 14 -2 17 -5 3 -12 -1 -15 -10 -4 -9 -9 -14
-13 -11 -3 4 -13 1 -21 -6 -10 -8 -13 -8 -9 -1 4 7 0 15 -9 18 -10 4 -13 2 -8
-6 5 -7 0 -9 -14 -6 -24 7 -39 -7 -21 -18 8 -5 9 -3 4 6 -5 9 -4 11 3 6 15 -9
15 -11 -5 -27 -9 -8 -14 -9 -10 -3 4 7 -2 14 -13 17 -14 3 -18 1 -13 -6 13
-21 11 -36 -3 -30 -8 3 -12 8 -10 12 2 3 -8 7 -22 7 -26 2 -26 1 -5 -8 24 -11
40 -39 20 -35 -7 1 -11 -8 -11 -20 1 -12 -3 -21 -9 -20 -6 1 -12 -5 -12 -13 0
-8 -7 -14 -15 -12 -11 3 -11 0 1 -14 9 -12 9 -15 2 -10 -8 4 -13 2 -13 -4 0
-6 -4 -9 -9 -5 -5 3 -12 1 -16 -4 -3 -6 6 -8 22 -5 19 3 24 2 14 -5 -7 -5 -10
-14 -7 -20 4 -6 3 -11 -3 -11 -5 0 -12 6 -14 13 -4 9 -6 8 -6 -2 -1 -8 -9 -20
-18 -28 -10 -8 -12 -11 -4 -7 8 4 25 8 38 10 18 2 22 -1 14 -10 -6 -7 -8 -16
-4 -19 3 -4 1 -7 -6 -7 -8 0 -11 7 -6 18 5 13 4 14 -6 5 -10 -10 -8 -18 12
-40 l24 -26 -25 16 c-35 24 -48 21 -17 -3 14 -12 24 -27 21 -34 -3 -8 0 -17 6
-21 8 -5 1 -19 -22 -43 -18 -19 -27 -32 -20 -28 14 8 12 -19 -2 -43 -6 -10 -5
-12 2 -7 7 4 12 2 12 -5 0 -6 -8 -9 -18 -7 -11 3 -19 0 -19 -7 0 -7 6 -11 14
-8 7 3 19 0 26 -6 10 -8 14 -7 14 4 0 8 -3 12 -6 10 -3 -2 -6 10 -6 26 -1 16
3 29 7 29 8 0 12 -15 9 -39 -2 -8 2 -10 11 -5 10 6 10 4 -1 -9 -7 -9 -10 -17
-5 -17 4 0 3 -5 -4 -12 -8 -8 -15 -8 -27 2 -10 8 -15 9 -15 1 0 -6 5 -11 11
-11 8 0 8 -4 2 -12 -15 -20 -13 -52 6 -76 16 -21 17 -22 17 -3 0 11 -4 19 -9
18 -5 -1 -12 4 -14 11 -4 10 1 10 21 0 15 -6 22 -14 17 -17 -11 -7 -10 -29 4
-50 5 -8 -5 -5 -22 7 -35 25 -57 30 -27 6 18 -14 18 -15 -6 -9 -21 5 -22 4 -7
-5 9 -6 21 -8 27 -5 14 9 30 -29 24 -59 -3 -20 -1 -26 8 -20 6 4 2 -7 -11 -24
-26 -37 -31 -39 -31 -11 0 11 4 18 9 14 5 -3 13 0 17 6 4 7 3 10 -2 7 -5 -4
-10 10 -10 29 -1 25 1 31 8 22 8 -11 9 -11 6 -1 -4 16 -23 12 -23 -4 0 -6 -7
-20 -15 -30 -14 -18 -14 -18 3 -5 20 16 22 9 5 -18 -6 -10 -8 -26 -4 -36 6
-16 8 -16 34 1 19 12 23 13 15 3 -10 -12 -10 -18 0 -29 8 -9 8 -11 0 -6 -7 4
-13 -2 -15 -16 -2 -12 -14 -29 -28 -36 -22 -12 -22 -13 -3 -9 21 5 37 -20 34
-50 -1 -7 4 -13 11 -13 8 0 9 -3 3 -8 -15 -10 -17 -32 -3 -32 6 0 3 -9 -7 -20
-17 -19 -17 -20 1 -20 16 0 17 -2 4 -10 -12 -7 -12 -10 -1 -10 7 0 11 -6 8
-13 -4 -10 6 -13 40 -12 25 1 53 -5 66 -14 12 -9 31 -17 42 -18 16 -2 17 -1 5
6 -8 5 -17 8 -21 5 -4 -2 -9 2 -12 9 -8 21 33 14 51 -9 12 -16 14 -16 9 -1 -6
16 8 23 36 18 7 -1 11 15 8 32 0 4 3 7 9 7 5 0 10 7 10 15 0 8 -6 15 -12 15
-10 0 -10 2 0 9 8 4 14 12 14 16 0 4 -6 12 -14 16 -7 5 -8 9 -2 9 13 0 12 52
-1 62 -6 5 -5 8 4 8 10 0 11 3 2 14 -9 11 -9 16 0 21 8 6 7 10 -2 16 -10 6
-11 9 -2 9 13 0 13 26 0 47 -4 6 -3 14 3 18 5 3 10 16 11 28 0 21 1 21 8 2 6
-13 4 -23 -6 -28 -7 -5 -11 -12 -8 -17 3 -5 15 0 26 11 11 11 22 19 24 17 7
-7 -7 -48 -16 -48 -5 0 -6 8 -3 18 5 13 4 14 -4 3 -6 -8 -9 -23 -7 -33 2 -10
1 -18 -4 -18 -4 0 -7 -11 -7 -24 0 -14 3 -23 8 -20 4 3 14 -8 22 -23 8 -15 15
-23 16 -17 0 6 -9 23 -21 38 -11 14 -16 26 -10 26 5 0 13 -5 16 -10 3 -5 11
-10 18 -10 6 0 2 6 -9 14 -21 16 -25 37 -9 48 19 14 26 8 15 -12 -9 -16 -8
-22 5 -26 9 -4 19 -4 22 0 4 3 -1 6 -11 6 -13 0 -15 4 -6 19 7 13 7 22 0 26
-5 3 -10 10 -10 16 0 5 9 4 19 -3 11 -7 17 -16 14 -22 -3 -5 -1 -6 5 -2 13 8
5 36 -10 33 -6 -1 -12 3 -15 9 -2 7 4 11 14 10 10 0 17 5 15 12 -3 17 30 12
36 -6 2 -7 -2 -11 -8 -10 -7 2 -15 -4 -17 -12 -4 -13 -3 -13 6 0 6 8 11 11 11
6 0 -6 5 -5 12 2 8 8 8 15 0 25 -7 8 -9 17 -5 20 3 4 12 -1 20 -11 12 -16 13
-15 6 3 -6 18 -5 18 10 6 9 -7 14 -18 10 -24 -4 -6 8 -1 25 12 18 12 30 27 27
32 -4 5 -2 9 4 9 19 0 21 -18 5 -35 -16 -15 -16 -18 2 -33 12 -11 14 -12 7 -2
-9 11 -7 20 6 37 17 20 19 20 35 5 13 -14 16 -14 18 -2 0 8 2 22 3 30 1 8 -3
21 -8 28 -7 9 -6 11 4 7 17 -7 41 -55 27 -55 -5 0 -6 -4 -3 -10 8 -13 46 -33
44 -23 -1 4 2 18 6 30 7 22 7 22 32 -7 20 -25 28 -28 44 -19 15 7 23 6 35 -6
9 -8 20 -12 26 -9 6 4 8 1 6 -7 -3 -8 5 -28 18 -45 13 -17 20 -34 17 -38 -4
-3 -1 -6 6 -6 7 0 10 -4 6 -10 -3 -5 -13 -7 -23 -4 -14 5 -14 4 -3 -4 8 -6 21
-7 30 -4 14 5 14 3 3 -11 -8 -8 -21 -13 -30 -10 -9 3 -1 -6 20 -18 29 -19 34
-26 23 -36 -7 -6 -16 -9 -20 -5 -4 4 -1 -4 8 -19 15 -23 15 -27 1 -47 -19 -27
-11 -29 13 -3 18 19 18 19 18 -12 0 -18 -4 -36 -10 -40 -5 -4 4 -5 20 -2 17 3
24 2 18 -1 -26 -12 -12 -19 36 -19 29 0 47 4 44 10 -2 6 3 1 11 -9 16 -19 16
-19 16 2 0 12 5 22 11 22 6 0 9 -6 6 -14 -5 -11 0 -13 25 -6 16 5 36 14 42 19
7 6 16 8 19 4 4 -3 7 -2 7 3 0 6 -6 16 -12 23 -7 7 -8 12 -3 11 24 -5 27 2 9
23 -10 12 -12 17 -5 10 15 -13 44 -6 35 8 -3 5 -9 7 -14 4 -4 -3 -11 2 -14 11
-6 15 -4 15 16 1 13 -8 22 -20 21 -26 -2 -6 2 -11 8 -11 6 0 8 -9 4 -21 -5
-13 -3 -19 3 -15 5 3 9 -2 8 -12 -1 -11 5 -16 16 -14 9 1 19 -1 22 -6 3 -5 -3
-8 -12 -7 -27 3 -52 16 -47 24 2 4 -2 8 -10 8 -8 0 -13 -5 -12 -11 1 -6 -6
-10 -15 -10 -10 1 -16 -2 -13 -6 3 -5 0 -10 -7 -12 -7 -3 -5 -7 6 -11 9 -4 15
-3 12 1 -3 4 4 13 15 20 16 10 22 9 39 -8 22 -22 35 -27 24 -8 -5 7 -2 9 8 5
9 -3 21 0 27 6 14 14 41 18 41 6 0 -6 5 -7 12 -3 6 4 8 3 5 -3 -4 -6 -18 -9
-32 -8 -14 2 -23 -1 -19 -7 3 -5 12 -7 20 -4 14 5 29 -9 17 -17 -5 -2 -3 -3 3
-1 6 1 18 -3 25 -9 7 -7 5 -2 -5 11 -19 22 -19 22 2 22 12 0 21 -5 19 -11 -1
-6 5 -14 13 -16 9 -3 11 -1 5 4 -15 12 -17 33 -2 34 6 1 32 2 57 2 25 1 49 6
53 12 5 5 5 -1 2 -14 -7 -23 -6 -23 15 -8 23 16 55 12 44 -5 -4 -7 -9 -7 -13
0 -4 6 -17 0 -34 -14 -16 -13 -24 -25 -20 -25 36 -6 53 -5 53 3 0 5 -10 6 -22
2 -20 -6 -21 -5 -10 8 14 18 65 22 55 4 -4 -6 1 -5 10 3 15 12 18 10 27 -10 8
-20 9 -20 8 -4 -2 11 1 26 6 34 7 11 6 12 -5 5 -20 -12 -39 -14 -39 -3 0 8 11
10 48 9 4 0 7 -9 7 -19 0 -11 4 -23 8 -27 4 -5 5 0 1 11 -7 18 -6 18 9 7 9 -8
21 -10 29 -5 7 4 23 8 35 8 18 1 22 -4 19 -21 -4 -18 -1 -21 12 -17 10 4 12 8
4 11 -7 2 -10 8 -7 12 3 5 11 7 18 4 7 -2 22 5 33 17 10 13 13 19 7 15 -7 -4
-13 -2 -13 3 0 16 43 7 48 -10 3 -11 2 -12 -6 -1 -7 11 -11 10 -16 -4 -4 -10
-4 -15 0 -11 4 4 16 -5 26 -20 10 -16 18 -23 18 -16 0 6 -4 15 -10 18 -5 3
-10 11 -10 17 0 6 7 5 17 -3 11 -10 14 -10 9 -1 -7 11 6 17 29 12 6 -1 6 2 2
7 -12 11 -31 11 -39 -2 -5 -6 -8 -3 -8 6 0 18 26 33 35 20 6 -11 55 -9 75 3 8
5 12 6 8 1 -4 -4 -3 -14 3 -21 8 -10 4 -13 -20 -12 -17 1 -28 5 -25 10 3 4 0
8 -5 8 -6 0 -11 -7 -11 -15 0 -10 10 -14 38 -12 33 2 37 5 35 27 -1 14 1 19 3
12 3 -6 9 -10 13 -7 5 2 17 -3 27 -11 10 -9 13 -13 7 -9 -9 4 -11 1 -6 -10 4
-13 8 -14 14 -4 4 7 6 16 3 20 -5 8 14 22 34 25 6 1 12 -2 12 -7 0 -6 4 -8 9
-4 6 3 15 -3 21 -12 10 -16 11 -15 6 5 -4 19 -2 21 10 11 7 -6 11 -15 9 -20
-3 -4 3 -13 12 -19 16 -10 16 -11 -4 -7 -15 3 -20 1 -16 -9 3 -8 9 -14 15 -14
5 0 6 -6 2 -12 -4 -7 4 -3 18 10 13 12 28 19 32 15 4 -5 6 -1 4 7 -2 9 4 14
14 14 9 -1 14 4 12 11 -3 6 2 12 10 12 8 0 13 -4 10 -9 -3 -4 -1 -8 4 -8 6 0
10 -6 9 -12 -1 -35 5 -48 21 -48 12 0 14 -3 4 -8 -10 -7 -8 -13 6 -30 17 -19
23 -20 49 -11 25 8 29 14 25 34 -2 14 -9 25 -14 25 -5 0 -6 5 -3 10 3 6 1 10
-5 10 -6 0 -9 4 -5 9 3 5 1 12 -5 16 -6 4 -7 11 -4 17 5 8 1 9 -11 4 -15 -5
-16 -4 -5 9 12 14 7 20 -15 15 -5 -1 -6 2 -2 6 9 10 30 14 78 17 39 2 47 21
16 39 -10 5 -14 14 -11 20 4 6 3 8 -3 5 -15 -10 -58 34 -59 60 0 12 3 20 8 17
4 -3 8 2 8 10 0 10 6 13 18 10 13 -5 14 -4 3 4 -7 5 -18 16 -23 23 -8 11 -9
10 -4 -3 3 -10 1 -20 -3 -22 -5 -3 -7 5 -6 17 3 31 3 31 21 17 13 -12 14 -10
3 14 -9 19 -15 23 -21 14 -4 -8 -8 -8 -8 -2 0 20 13 24 29 10 12 -11 21 -12
31 -5 13 9 12 10 -2 5 -11 -3 -21 2 -28 14 -15 28 -12 38 5 16 8 -11 15 -15
15 -10 0 6 -6 16 -12 22 -10 10 -10 15 2 22 8 5 11 10 6 10 -5 0 -18 -8 -29
-17 -19 -17 -20 -17 -8 4 7 14 7 24 1 28 -6 4 -6 15 0 31 13 33 13 54 0 34 -5
-8 -10 -10 -10 -4 0 19 13 24 28 11 13 -10 14 -9 3 11 -7 12 -16 20 -21 17 -5
-3 -12 0 -16 6 -4 8 -3 9 4 5 16 -10 15 0 -2 27 -7 12 -13 32 -11 45 1 18 -2
21 -19 17 -18 -4 -18 -4 2 7 13 6 21 17 18 24 -3 7 0 11 7 8 16 -6 20 -74 4
-74 -7 0 -6 -4 3 -10 21 -13 34 4 21 29 -8 14 -8 21 -1 21 6 0 15 -10 20 -22
l9 -23 0 22 c1 13 -7 24 -19 28 -11 4 -18 11 -15 16 4 5 14 5 26 -1 28 -15 23
-5 -7 15 -15 9 -23 11 -19 4 6 -8 4 -10 -4 -5 -9 6 -8 13 6 29 10 12 23 25 28
29 6 4 6 8 1 8 -5 0 -19 -8 -30 -17 -20 -18 -20 -18 -2 11 14 23 15 28 4 23
-11 -4 -14 1 -10 19 2 13 8 24 13 24 5 0 6 -7 3 -15 -4 -8 -1 -15 5 -15 6 0
10 5 8 11 -1 6 4 14 11 16 8 3 10 -1 6 -11 -3 -9 -2 -16 4 -16 6 0 9 8 8 18
-2 9 -11 17 -21 17 -10 0 -20 6 -23 13 -2 8 3 10 15 6 17 -5 17 -5 0 6 -9 6
-20 9 -25 6 -4 -2 -7 18 -7 44 0 26 3 46 6 44 4 -2 9 6 13 19 5 18 8 19 15 8
10 -16 45 -25 35 -10 -3 5 -9 7 -14 4 -4 -3 -11 2 -14 10 -4 12 -10 13 -24 6
-14 -7 -19 -6 -19 4 0 8 4 12 9 9 15 -10 8 9 -9 23 -17 14 -17 14 0 9 43 -15
50 -16 30 -5 -13 7 -23 16 -23 22 0 5 -6 7 -13 4 -10 -4 -12 3 -9 24 2 16 7
27 11 25 4 -3 8 5 8 17 2 20 1 20 -8 4 -8 -14 -14 -16 -25 -6 -7 6 -11 15 -8
20 3 5 0 9 -5 9 -15 0 -14 -6 5 -36 9 -13 14 -27 11 -30 -3 -3 -8 4 -12 15 -3
12 -11 18 -17 15 -6 -4 -8 -2 -4 4 3 6 2 14 -4 17 -8 5 -7 11 1 21 10 12 9 13
-5 8 -9 -3 -16 -11 -16 -17 0 -6 -7 -1 -16 11 -8 12 -24 22 -35 22 -10 0 -19
4 -19 10 0 6 9 6 25 0 16 -6 25 -6 25 0 0 6 -8 10 -18 10 -10 0 -23 5 -29 11
-8 8 -13 7 -18 -2 -6 -8 -4 -10 5 -4 9 5 11 4 6 -3 -4 -7 -14 -9 -24 -4 -9 4
-26 7 -37 7 -11 0 -26 6 -33 15 -11 13 -11 13 -6 -1 3 -10 1 -20 -5 -24 -6 -3
-9 0 -5 8 3 8 -2 14 -11 14 -8 0 -15 -4 -15 -9 0 -4 -5 -8 -11 -8 -8 0 -8 5 1
15 7 8 16 12 21 9 5 -3 9 0 9 5 0 14 -17 14 -25 0 -4 -6 -14 -8 -22 -5 -9 4
-11 2 -7 -6 5 -7 3 -8 -6 -3 -7 4 -16 2 -22 -6 -7 -11 -8 -9 -6 6 2 12 -2 19
-9 18 -7 -2 -13 7 -13 19 0 33 -11 14 -12 -21 -1 -18 -6 -34 -11 -38 -6 -4 -7
-1 -3 6 9 14 -22 53 -36 45 -5 -3 -15 0 -23 6 -12 10 -18 10 -30 0 -8 -6 -18
-9 -23 -6 -6 3 -15 0 -21 -8 -9 -11 -7 -13 11 -12 13 0 29 8 36 16 11 13 13
13 25 -1 6 -9 20 -15 30 -13 9 1 17 -4 17 -11 0 -13 -48 -14 -69 -1 -6 4 -11
1 -11 -6 0 -10 -2 -10 -9 1 -6 9 -10 10 -16 2 -5 -9 -10 -9 -21 0 -9 7 -19 8
-26 2 -7 -5 -24 -9 -38 -9 -19 1 -25 6 -24 24 1 12 -3 22 -7 22 -5 0 -9 -4 -9
-8 0 -5 -7 -9 -15 -9 -9 0 -14 6 -11 12 2 7 0 18 -5 26 -8 12 -10 12 -8 -1 3
-26 -1 -44 -8 -37 -3 4 -12 2 -19 -4 -10 -8 -18 -3 -34 23 -18 28 -21 29 -15
8z m-137 -41 c1 -1 6 -2 11 -3 19 -2 19 -12 1 -13 -11 -1 -20 3 -20 9 0 7 -5
6 -15 -2 -15 -13 -39 -5 -30 11 5 7 43 6 53 -2z m254 -7 c-4 -11 -6 -11 -13 0
-7 10 -9 10 -10 -2 0 -12 -2 -12 -6 -1 -4 10 -7 10 -13 1 -5 -9 -9 -8 -12 2
-4 10 3 14 27 14 24 0 31 -4 27 -14z m281 1 c-3 -7 -6 -13 -8 -13 -2 0 -5 6
-8 13 -3 8 1 14 8 14 7 0 11 -6 8 -14z m-1006 -15 c-3 -8 -6 -5 -6 6 -1 11 2
17 5 13 3 -3 4 -12 1 -19z m248 -158 c-5 -9 6 -14 26 -12 3 1 6 -6 6 -13 0
-12 -3 -12 -14 -3 -11 9 -16 9 -22 -1 -7 -10 -9 -9 -14 2 -3 8 0 20 6 26 14
14 20 14 12 1z m9 -52 c-5 -8 -2 -9 9 -5 24 9 21 0 -4 -14 -15 -8 -19 -8 -15
0 4 6 1 11 -6 11 -9 0 -9 3 2 10 20 13 23 12 14 -2z m-839 -27 c3 -5 2 -12 -3
-15 -5 -3 -9 1 -9 9 0 17 3 19 12 6z m135 -6 c-7 -8 -16 -12 -21 -9 -5 3 -9
-1 -9 -8 0 -8 9 -14 20 -15 11 -1 18 1 16 5 -2 4 2 16 11 27 10 14 14 15 13 5
-4 -27 0 -41 10 -35 5 3 6 13 3 22 -6 15 -5 16 9 3 11 -11 13 -17 4 -23 -7 -5
-3 -7 9 -5 13 3 19 10 17 23 -2 17 -1 17 7 5 10 -13 11 -13 11 0 1 12 3 11 11
-3 7 -12 15 -15 26 -8 9 4 24 6 34 4 12 -3 19 0 19 8 1 9 4 8 11 -4 8 -13 7
-22 -1 -33 -8 -9 -9 -14 -2 -14 12 0 25 18 28 38 1 6 -2 12 -7 12 -5 0 -9 5
-9 11 0 8 4 9 13 0 8 -6 18 -8 23 -4 5 4 3 1 -3 -6 -10 -11 -10 -18 -1 -29 9
-10 9 -15 -1 -22 -8 -4 -9 -10 -4 -13 6 -4 15 5 22 19 6 15 7 23 1 19 -5 -3
-10 -2 -10 3 0 13 35 21 50 12 17 -10 61 10 53 23 -4 6 -1 7 7 2 10 -6 9 -11
-5 -22 -11 -7 -23 -13 -28 -13 -4 0 -5 -4 -2 -10 8 -13 -14 -52 -26 -45 -5 4
-9 1 -9 -4 0 -6 11 -10 25 -9 16 2 24 7 21 15 -3 7 -1 15 5 18 5 4 7 11 4 16
-4 5 -2 9 3 9 4 0 8 -18 8 -40 0 -23 -3 -34 -8 -27 -4 6 -8 9 -8 5 0 -3 -3
-13 -6 -21 -3 -10 0 -14 12 -14 9 1 19 -4 21 -10 3 -7 0 -13 -7 -13 -6 0 -8 5
-5 10 3 6 2 10 -3 10 -16 0 -22 -13 -11 -26 7 -8 7 -14 -1 -19 -6 -4 -9 -1 -8
7 4 15 -33 18 -45 3 -5 -6 -7 -3 -3 7 3 10 1 20 -4 23 -6 4 -10 1 -10 -5 0 -6
-4 -9 -9 -5 -6 3 -14 -3 -20 -12 -7 -12 -10 -13 -11 -4 0 11 -3 11 -17 0 -13
-11 -15 -11 -9 -1 10 16 -25 13 -36 -3 -5 -6 -8 -5 -8 4 0 10 -6 9 -27 -5 -24
-15 -26 -15 -14 -1 17 22 2 22 -29 0 -24 -16 -24 -16 -11 0 7 9 9 17 4 17 -5
0 -20 -8 -33 -17 -24 -16 -24 -16 -11 0 16 20 8 22 -21 6 -15 -8 -19 -8 -14 0
9 14 0 14 -24 1 -15 -8 -20 -6 -25 10 -3 11 -11 20 -16 20 -6 0 -7 -6 -3 -12
5 -8 0 -7 -11 2 -17 14 -18 13 -12 -2 4 -12 2 -15 -9 -11 -16 6 -19 23 -4 23
6 0 10 5 10 11 0 5 -4 7 -10 4 -5 -3 -10 -1 -10 5 0 7 6 10 14 7 16 -6 30 19
16 28 -6 4 -10 1 -10 -5 0 -7 -8 -9 -19 -5 -15 4 -18 0 -17 -21 1 -16 -5 -29
-14 -31 -13 -4 -13 -3 -1 5 11 8 12 14 3 24 -8 11 -8 18 -1 25 13 13 -13 58
-26 45 -5 -4 -5 -1 -1 6 4 7 11 10 16 7 5 -3 11 -1 15 5 3 5 11 10 18 10 6 0
3 -6 -6 -13 -16 -11 -16 -14 -2 -35 16 -21 35 -22 35 -1 0 6 -4 8 -9 4 -5 -3
-13 -1 -16 5 -7 11 32 49 50 50 5 0 -1 -7 -13 -16 -12 -8 -20 -20 -17 -25 9
-13 25 -11 23 4 -2 6 5 11 15 11 13 -2 16 3 12 17 -5 14 -2 17 14 14 11 -2 23
0 26 6 4 5 9 9 12 9 3 0 0 -7 -7 -15z m1380 11 c0 -2 -7 -7 -16 -10 -8 -3 -12
-2 -9 4 6 10 25 14 25 6z m-374 -15 c-3 -5 1 -14 9 -21 8 -7 15 -18 15 -24 0
-6 -9 0 -19 14 -17 22 -19 40 -5 40 3 0 3 -4 0 -9z m41 -6 c-4 -8 -2 -17 2
-20 5 -3 11 2 15 10 3 8 11 15 18 14 10 0 10 -2 1 -6 -20 -8 -15 -22 7 -20 12
1 18 7 16 14 -3 7 0 15 6 19 6 4 8 3 5 -3 -10 -15 18 -24 32 -10 15 15 54 17
41 2 -7 -9 -5 -16 6 -26 13 -11 15 -11 14 2 -4 29 0 38 20 36 14 -1 18 -6 14
-19 -4 -13 -1 -16 10 -12 9 3 14 9 11 14 -2 4 7 6 20 4 14 -1 25 1 25 5 0 4 7
8 16 8 15 0 15 -1 0 -12 -13 -10 -14 -14 -4 -22 28 -21 36 -22 49 -6 10 12 10
14 2 9 -7 -4 -13 -2 -13 3 0 6 6 11 14 11 8 0 16 3 19 8 2 4 2 0 0 -8 -8 -29
-8 -33 5 -37 7 -3 12 -1 11 4 -6 33 23 48 35 18 3 -8 11 -15 17 -15 8 0 8 4
-1 15 -9 10 -9 15 -1 15 6 0 11 -4 11 -9 0 -15 32 -22 46 -10 10 8 14 8 14 0
0 -6 -4 -11 -10 -11 -5 0 -7 -7 -3 -16 5 -14 8 -13 18 7 7 13 11 28 8 35 -2 7
0 15 5 18 12 7 7 -36 -7 -62 -15 -28 -14 -37 3 -23 8 7 17 8 20 3 7 -11 2 -40
-9 -49 -4 -4 -5 -2 -1 5 4 7 1 12 -8 12 -8 0 -17 8 -20 18 -7 20 -47 23 -53 5
-2 -6 4 -10 14 -9 17 3 47 -28 48 -49 1 -5 7 -8 15 -7 8 2 11 0 7 -4 -4 -4
-15 -9 -23 -10 -9 -1 -13 0 -10 3 3 4 -4 13 -15 21 -15 10 -17 17 -9 22 8 5 7
9 -5 13 -9 4 -13 3 -10 -3 3 -6 1 -10 -5 -10 -6 0 -8 -4 -5 -10 3 -5 1 -18 -4
-27 -6 -11 -11 -13 -11 -5 0 9 -5 10 -19 2 -11 -5 -26 -10 -33 -9 -7 0 -5 4 5
8 17 6 17 8 -3 34 -20 25 -40 28 -40 6 0 -6 4 -8 8 -5 12 7 38 -12 29 -21 -5
-4 -12 -1 -16 6 -7 11 -10 9 -15 -6 -3 -11 -13 -20 -21 -20 -8 0 -11 5 -8 10
4 7 -1 7 -13 2 -10 -4 -32 -9 -47 -10 -22 -3 -26 0 -17 10 7 8 7 15 1 19 -5 4
-13 -3 -16 -14 -5 -17 -9 -19 -21 -9 -8 7 -13 18 -10 26 3 7 1 13 -4 13 -6 0
-10 -9 -10 -19 0 -11 -5 -23 -11 -27 -8 -4 -9 1 -4 17 8 24 8 24 -14 5 -12
-11 -31 -20 -41 -21 -19 -2 -19 -1 -3 17 9 10 11 18 5 18 -7 0 -17 -8 -23 -19
-11 -17 -14 -16 -42 15 -16 19 -34 34 -40 34 -5 0 -3 -8 6 -18 19 -21 22 -38
7 -47 -6 -3 -7 1 -4 9 7 18 -19 49 -32 38 -5 -4 -3 1 4 10 11 14 10 18 -5 27
-10 6 -13 11 -7 11 6 0 14 -3 18 -7 4 -5 18 -8 29 -8 15 0 22 -6 21 -18 -1
-10 3 -16 10 -14 6 3 10 10 9 16 -3 10 9 15 29 13 3 -1 9 5 11 13 6 13 -20 14
-42 0 -5 -3 -17 2 -25 11 -9 8 -16 11 -16 5 0 -6 -5 -11 -11 -11 -8 0 -7 5 1
15 10 11 10 19 2 27 -10 10 -6 38 5 38 3 0 3 -7 0 -15z m-364 -10 c-3 -9 -8
-14 -10 -11 -3 3 -2 9 2 15 9 16 15 13 8 -4z m837 5 c-8 -5 -22 -9 -30 -9 -10
0 -8 3 5 9 27 12 43 12 25 0z m-1110 -12 c0 -3 -9 -6 -20 -5 -11 1 -20 5 -20
9 0 3 9 6 20 5 11 -1 20 -5 20 -9z m943 -2 c4 -10 1 -13 -9 -9 -7 3 -14 9 -14
14 0 14 17 10 23 -5z m-633 -22 c0 -2 -7 -4 -15 -4 -8 0 -15 4 -15 10 0 5 7 7
15 4 8 -4 15 -8 15 -10z m-330 -4 c0 -5 -4 -10 -10 -10 -5 0 -10 5 -10 10 0 6
5 10 10 10 6 0 10 -4 10 -10z m20 -19 c-5 -10 -6 -22 -2 -27 4 -5 0 -3 -9 4
-9 6 -19 9 -22 5 -4 -3 -7 -1 -7 6 0 8 7 11 15 7 14 -5 20 5 16 27 -1 5 3 6 9
2 7 -4 7 -12 0 -24z m-567 -12 c-9 -9 -12 -7 -10 9 1 14 5 18 11 12 7 -7 6
-14 -1 -21z m1167 27 c0 -2 -7 -7 -16 -10 -8 -3 -12 -2 -9 4 6 10 25 14 25 6z
m574 -12 c5 -14 4 -15 -9 -4 -17 14 -19 20 -6 20 5 0 12 -7 15 -16z m-874 -28
c0 -3 -4 -8 -10 -11 -5 -3 -10 -1 -10 4 0 6 5 11 10 11 6 0 10 -2 10 -4z m300
0 c0 -3 -4 -8 -10 -11 -5 -3 -10 -1 -10 4 0 6 5 11 10 11 6 0 10 -2 10 -4z
m-1165 -27 c-4 -5 -12 -9 -18 -8 -9 0 -8 2 1 6 6 2 9 10 6 15 -4 7 -2 8 5 4 6
-4 9 -12 6 -17z m545 11 c0 -5 -4 -10 -10 -10 -5 0 -10 5 -10 10 0 6 5 10 10
10 6 0 10 -4 10 -10z m340 -4 c0 -2 -7 -7 -16 -10 -8 -3 -12 -2 -9 4 6 10 25
14 25 6z m300 -32 c0 -2 -9 0 -20 6 -11 6 -20 13 -20 16 0 2 9 0 20 -6 11 -6
20 -13 20 -16z m-1157 -11 c-7 -2 -19 -2 -25 0 -7 3 -2 5 12 5 14 0 19 -2 13
-5z m527 3 c0 -2 -7 -7 -16 -10 -8 -3 -12 -2 -9 4 6 10 25 14 25 6z m301 -19
c-10 -9 -11 -8 -5 6 3 10 9 15 12 12 3 -3 0 -11 -7 -18z m384 14 c3 -5 2 -12
-3 -15 -5 -3 -9 1 -9 9 0 17 3 19 12 6z m419 1 c3 -5 -1 -9 -9 -9 -8 0 -12 4
-9 9 3 4 7 8 9 8 2 0 6 -4 9 -8z m-1929 -12 c-3 -5 -1 -10 6 -10 7 0 10 -3 6
-6 -3 -4 -14 -3 -24 0 -15 6 -15 8 -3 16 19 12 23 12 15 0z m375 6 c0 -3 -4
-8 -10 -11 -5 -3 -10 -1 -10 4 0 6 5 11 10 11 6 0 10 -2 10 -4z m320 0 c0 -3
-4 -8 -10 -11 -5 -3 -10 -1 -10 4 0 6 5 11 10 11 6 0 10 -2 10 -4z m460 -16
c0 -5 -5 -10 -11 -10 -5 0 -7 5 -4 10 3 6 8 10 11 10 2 0 4 -4 4 -10z m-20
-35 c0 -7 -30 -13 -34 -7 -3 4 4 9 15 9 10 1 19 0 19 -2z m6 -34 c0 -16 -3
-17 -14 -9 -12 10 -7 19 13 28 1 0 1 -9 1 -19z m8 -45 c-3 -9 -12 -12 -22 -9
-15 6 -9 11 25 22 1 1 0 -5 -3 -13z m-1143 -15 c-7 -5 -11 -13 -7 -19 3 -6 -1
-9 -9 -8 -35 5 -31 31 7 33 16 2 19 0 9 -6z m1139 -18 c7 7 5 0 -5 -15 -19
-31 -28 -36 -18 -11 4 10 2 14 -5 9 -6 -3 -14 -1 -18 5 -5 8 -3 9 6 4 10 -6
12 -3 7 11 -7 18 -6 18 6 2 11 -14 16 -15 27 -5z m-5 -73 c-4 -6 -1 -19 7 -28
12 -15 11 -16 -4 -4 -9 8 -22 11 -27 8 -5 -4 -13 -1 -17 5 -4 7 -3 9 3 6 6 -4
16 0 23 8 14 17 24 20 15 5z m-832 -25 c-3 -9 -8 -14 -10 -11 -3 3 -2 9 2 15
9 16 15 13 8 -4z m53 0 c-3 -8 -1 -15 4 -15 6 0 10 4 10 9 0 5 11 8 25 5 15
-3 25 0 25 7 0 7 3 9 6 6 4 -4 1 -14 -6 -22 -11 -13 -15 -13 -21 -3 -7 11 -9
11 -9 0 0 -7 -4 -11 -9 -8 -5 3 -8 -2 -7 -12 1 -12 -5 -16 -21 -15 -17 2 -21
-2 -18 -17 2 -11 -1 -20 -6 -20 -5 0 -9 7 -7 16 2 10 -5 18 -15 19 -9 2 -15
-1 -11 -6 3 -5 10 -7 15 -4 5 3 6 -1 3 -10 -6 -14 -8 -14 -20 2 -13 17 -14 17
-8 1 3 -10 1 -18 -4 -18 -6 0 -9 9 -7 20 2 11 0 20 -6 20 -5 0 -9 7 -9 16 0 9
-5 12 -12 8 -7 -4 -9 -3 -5 1 13 15 36 14 31 0 -8 -19 26 -12 37 8 5 9 16 14
24 11 8 -4 15 -1 15 5 0 6 3 11 6 11 3 0 4 -7 0 -15z m127 -5 c4 0 5 6 1 13
-4 6 2 4 13 -5 11 -10 23 -18 28 -18 4 0 1 8 -6 18 -13 15 -12 16 3 3 10 -7
16 -17 13 -21 -3 -5 1 -10 7 -13 7 -2 10 -8 6 -12 -4 -4 -14 -2 -23 5 -8 7
-15 9 -15 5 0 -4 -7 -2 -15 5 -15 12 -39 5 -30 -10 3 -5 -4 -14 -16 -20 -17
-10 -20 -9 -16 2 2 7 10 12 16 10 7 -1 9 3 6 9 -5 8 -10 8 -18 0 -13 -13 -27
-14 -27 -2 0 5 9 12 20 16 11 3 19 9 19 13 -3 19 2 25 13 14 7 -7 16 -12 21
-12z m116 -6 c-13 -15 -9 -17 15 -8 9 3 14 10 11 14 -3 5 3 7 12 5 10 -1 24 2
31 8 9 7 11 5 6 -9 -7 -18 -6 -18 17 1 18 16 21 16 10 2 -8 -9 -11 -21 -7 -24
4 -4 11 -1 16 7 8 12 13 13 30 2 21 -13 28 -4 10 14 -7 7 -6 11 5 11 8 0 13
-2 10 -5 -2 -3 1 -14 7 -25 10 -20 11 -20 24 -2 13 18 20 9 15 -19 -1 -5 8
-19 20 -32 22 -24 19 -47 -6 -38 -8 4 -13 10 -10 14 3 5 1 11 -4 14 -16 10
-22 -11 -6 -24 7 -6 12 -17 9 -25 -3 -7 0 -16 6 -20 6 -3 9 -1 8 6 -2 6 3 14
10 16 14 6 16 -13 2 -22 -6 -4 -8 -11 -4 -16 3 -5 10 -7 15 -4 5 4 9 1 9 -4 0
-6 -5 -11 -11 -11 -5 0 -7 -4 -4 -10 3 -5 1 -10 -4 -10 -10 0 -14 13 -8 25 1
2 -8 12 -21 20 -12 9 -20 20 -17 25 3 4 -1 10 -7 12 -7 3 -13 12 -13 21 0 9
-3 16 -6 14 -4 -1 -16 6 -27 16 -16 15 -25 16 -40 8 -18 -9 -24 -6 -46 21
l-25 32 -12 -27 c-13 -28 -36 -39 -26 -12 4 8 2 17 -3 20 -7 4 -7 18 -1 43 1
2 6 0 11 -3 8 -5 7 -11 -1 -21z m962 8 c-7 -2 -18 1 -23 6 -8 8 -4 9 13 5 13
-4 18 -8 10 -11z m82 -22 c5 0 6 7 3 16 -3 8 -2 13 3 9 5 -3 12 1 15 7 3 7 3
2 0 -12 l-5 -25 20 24 c12 13 21 19 21 14 0 -5 -3 -13 -7 -17 -12 -12 -12 -37
0 -33 7 2 13 9 13 15 1 7 2 18 3 25 1 9 4 8 10 -2 7 -11 11 -10 20 5 11 17 11
16 6 -6 l-6 -25 20 24 c12 13 21 18 21 13 0 -6 -5 -14 -10 -17 -12 -8 6 -35
22 -35 7 0 7 5 0 13 -7 8 -7 18 -2 27 9 13 10 13 10 0 1 -11 4 -10 15 4 8 11
15 15 15 10 0 -6 -5 -15 -11 -21 -8 -8 -4 -11 15 -10 27 2 31 7 19 23 -5 5 -1
2 7 -7 25 -25 66 -50 73 -42 12 11 7 21 -9 19 -9 0 -19 6 -21 14 -4 13 -3 13
6 0 8 -11 13 -12 22 -3 6 6 18 9 26 6 12 -5 12 -7 1 -14 -11 -7 -10 -11 2 -19
11 -7 17 -4 22 13 5 17 6 14 5 -11 -1 -33 -26 -59 -41 -44 -4 4 -5 -5 -1 -21
5 -17 3 -27 -4 -27 -6 0 -8 7 -5 15 5 11 2 13 -10 9 -9 -3 -13 -11 -9 -17 4
-6 1 -7 -7 -2 -8 5 -11 3 -8 -6 2 -7 18 -14 35 -14 17 0 35 -4 40 -9 5 -5 3
-6 -5 -2 -7 4 -20 2 -29 -6 -14 -11 -16 -11 -8 1 6 11 4 13 -7 8 -9 -3 -20 -1
-25 4 -10 10 -43 2 -43 -11 0 -5 10 -6 23 -4 20 4 21 4 2 -5 -15 -6 -23 -5
-32 7 -7 9 -13 12 -13 7 0 -5 -5 -4 -12 3 -8 8 -15 9 -25 1 -12 -11 -18 -1
-14 24 0 4 -3 7 -7 7 -19 0 -21 -15 -6 -38 l17 -25 -32 22 c-31 23 -42 17 -18
-9 6 -8 0 -5 -14 8 -14 12 -28 19 -32 16 -4 -4 1 -13 11 -21 15 -12 14 -13 -8
-2 -31 15 -60 18 -82 7 -13 -6 -16 -5 -13 5 4 8 -3 13 -15 14 -11 1 -20 -2
-20 -8 0 -5 -5 -9 -12 -9 -9 0 -9 3 0 12 19 19 14 29 -7 16 -11 -7 -18 -16
-15 -20 3 -4 -3 -5 -12 -1 -12 5 -15 3 -9 -6 6 -10 3 -11 -11 -3 -11 5 -26 7
-34 5 -13 -4 -13 -3 0 6 23 16 22 68 -1 74 -20 5 -44 -24 -31 -38 4 -5 1 -5
-6 -1 -10 6 -8 14 5 37 10 16 19 25 21 19 2 -5 11 -10 20 -10 15 0 15 2 2 11
-11 8 -9 9 10 3 23 -6 24 -6 10 12 -14 18 -14 18 2 5 10 -7 16 -17 13 -21 -5
-8 25 -24 32 -17 2 3 -10 19 -27 37 -33 35 -40 50 -13 29 15 -12 16 -12 10 4
-4 11 -3 16 4 12 6 -4 8 -13 5 -20 -8 -21 6 -26 20 -7 12 15 15 15 24 2 5 -8
10 -11 10 -5 0 5 5 4 12 -3 7 -7 17 -12 23 -12 5 1 -1 10 -14 20 -13 11 -19
20 -14 20 5 0 15 -6 22 -12 11 -11 12 -8 7 12 -6 25 -6 25 5 3 7 -13 16 -23
22 -23z m332 22 c-3 -3 -11 0 -18 7 -9 10 -8 11 6 5 10 -3 15 -9 12 -12z
m-842 -29 c-7 -3 -9 -12 -6 -21 3 -9 3 -14 -1 -11 -4 4 -8 16 -11 27 -3 16 0
19 13 15 9 -4 11 -8 5 -10z m305 -25 c-14 -20 -54 -36 -42 -17 3 5 9 7 14 4 5
-3 13 2 18 12 8 13 6 21 -6 31 -15 11 -14 12 6 2 21 -10 22 -14 10 -32z m42
27 c0 -8 -4 -15 -10 -15 -5 0 -7 7 -4 15 4 8 8 15 10 15 2 0 4 -7 4 -15z
m-636 -21 c3 -8 2 -12 -4 -9 -6 3 -10 10 -10 16 0 14 7 11 14 -7z m279 -39
c-3 -9 -8 -14 -10 -11 -3 3 -2 9 2 15 9 16 15 13 8 -4z m887 1 c0 -3 -4 -8
-10 -11 -5 -3 -10 -1 -10 4 0 6 5 11 10 11 6 0 10 -2 10 -4z m-865 -36 c2 -12
1 -20 -2 -16 -4 4 -8 16 -10 28 -4 28 6 18 12 -12z m321 5 c1 -14 -2 -22 -7
-19 -11 6 -12 44 -1 44 4 0 8 -11 8 -25z m514 -1 c0 -8 5 -12 10 -9 6 3 10 4
10 1 0 -16 -21 -13 -30 4 -7 13 -7 20 0 20 5 0 10 -7 10 -16z m-861 -30 c4 3
8 -5 8 -16 2 -20 1 -20 -12 -2 -8 11 -14 24 -14 29 0 6 3 4 6 -3 2 -6 8 -10
12 -8z m305 -2 c3 -5 -1 -9 -9 -9 -8 0 -12 4 -9 9 3 4 7 8 9 8 2 0 6 -4 9 -8z
m581 -11 c3 -5 2 -12 -3 -15 -5 -3 -9 1 -9 9 0 17 3 19 12 6z m-900 -10 c3 -5
2 -12 -3 -15 -5 -3 -9 1 -9 9 0 17 3 19 12 6z m-1100 -31 c-3 -5 -12 -10 -18
-10 -7 0 -6 4 3 10 19 12 23 12 15 0z m1155 -6 c0 -8 -19 -13 -24 -6 -3 5 1 9
9 9 8 0 15 -2 15 -3z m-307 -23 c3 -12 0 -18 -9 -17 -19 3 -27 13 -19 25 10
17 22 13 28 -8z m-848 -1 c3 -5 1 -10 -4 -10 -6 0 -11 5 -11 10 0 6 2 10 4 10
3 0 8 -4 11 -10z m1105 0 c0 -5 -2 -10 -4 -10 -3 0 -8 5 -11 10 -3 6 -1 10 4
10 6 0 11 -4 11 -10z m35 -8 c-3 -3 -11 0 -18 7 -9 10 -8 11 6 5 10 -3 15 -9
12 -12z m-15 -22 c0 -5 -4 -10 -10 -10 -5 0 -10 5 -10 10 0 6 5 10 10 10 6 0
10 -4 10 -10z m-270 -52 c0 -5 -5 -8 -11 -8 -5 0 -7 5 -4 10 3 6 1 10 -5 10
-6 0 -8 5 -4 11 6 11 23 -6 24 -23z m284 16 c9 -8 16 -21 16 -27 0 -7 -5 -4
-11 5 -5 10 -17 22 -27 27 -9 6 -12 11 -5 11 6 0 19 -7 27 -16z m-214 -108 c0
-2 -7 -7 -16 -10 -8 -3 -12 -2 -9 4 6 10 25 14 25 6z m712 -11 c16 2 30 -1 34
-6 3 -5 9 -7 14 -4 5 3 11 1 15 -5 6 -10 -9 -15 -30 -10 -37 8 -65 8 -70 0 -8
-13 -35 -1 -35 15 0 16 21 25 35 15 6 -5 22 -7 37 -5z"/>
<path d="M833 1678 c-4 -7 -8 -16 -9 -20 -1 -5 -2 -11 -3 -15 -1 -5 -5 -2 -9
5 -11 16 -62 26 -62 12 0 -6 -5 -8 -12 -3 -7 4 -26 8 -41 9 -27 2 -27 2 -10
-11 15 -11 16 -16 5 -27 -11 -11 -12 -10 -7 5 4 9 3 17 -3 17 -16 0 -24 -18
-12 -25 7 -4 7 -12 0 -25 -14 -25 -13 -30 5 -24 8 4 17 -1 21 -9 6 -16 74 -20
74 -4 0 5 7 3 17 -4 13 -11 17 -11 21 -1 3 10 7 10 17 2 11 -9 21 -6 44 11 17
12 34 19 38 15 4 -4 -3 -9 -15 -13 -12 -3 -22 -9 -22 -13 0 -10 50 -7 68 3 6
5 12 4 12 -2 0 -11 18 -9 46 7 18 9 24 9 34 -3 16 -20 35 -9 37 22 0 15 -2 21
-6 14 -6 -9 -14 -6 -32 8 -13 11 -18 20 -11 21 7 0 12 7 10 16 -2 10 3 19 10
21 6 3 12 0 12 -7 0 -6 -4 -8 -10 -5 -6 4 -7 -1 -3 -11 5 -15 7 -15 16 2 7 13
5 20 -9 31 -16 12 -20 11 -30 -9 -7 -13 -10 -26 -8 -29 8 -13 -25 -18 -35 -5
-7 9 -7 17 2 27 6 7 0 3 -14 -9 -22 -19 -27 -21 -32 -8 -3 9 -2 18 3 21 6 4
10 12 10 18 0 8 -3 8 -9 -1 -4 -8 -12 -14 -16 -14 -4 0 -12 6 -16 14 -6 8 -9
9 -9 1 0 -12 -17 -12 -37 0 -6 4 -15 2 -20 -5z m59 -13 c20 1 25 -2 23 -16 -4
-19 21 -34 31 -18 4 7 12 5 23 -5 10 -9 20 -13 24 -10 3 4 18 -3 33 -15 15
-11 22 -21 16 -21 -6 0 -14 5 -18 11 -3 6 -9 7 -13 3 -3 -5 -15 -16 -26 -24
-19 -14 -19 -14 -6 3 13 16 2 25 -13 10 -4 -5 -12 -9 -17 -9 -5 -1 -10 -2 -11
-4 -2 -1 -11 -3 -21 -5 -14 -3 -15 0 -8 9 8 9 6 18 -5 32 -8 10 -13 14 -10 8
8 -17 -47 -54 -66 -43 -11 6 -19 5 -23 -1 -5 -8 -11 -8 -20 0 -9 8 -15 8 -20
0 -3 -6 -11 -8 -16 -4 -5 3 -6 10 -3 16 4 6 1 8 -7 6 -8 -3 -13 -11 -11 -17 2
-9 -3 -9 -17 -1 -30 16 -35 29 -16 50 9 10 14 23 11 28 -11 19 24 6 38 -14 12
-16 17 -17 28 -6 11 11 10 12 -6 6 -14 -5 -17 -3 -14 7 6 18 29 19 50 1 13
-11 18 -11 24 0 5 7 9 16 10 21 1 4 2 10 3 13 0 4 7 2 14 -3 6 -6 24 -9 39 -8z"/>
<path d="M843 1665 c4 -5 0 -17 -10 -27 -16 -17 -17 -17 -36 -1 -11 10 -17 13
-14 7 4 -7 0 -18 -9 -25 -14 -11 -19 -10 -33 7 l-17 21 -18 -25 c-15 -20 -16
-26 -5 -33 8 -5 20 -2 31 8 18 16 24 8 19 -21 -1 -5 4 -4 13 3 10 8 16 9 21 1
5 -8 11 -8 21 1 10 8 18 8 27 1 8 -7 19 -5 36 9 13 10 17 19 10 19 -10 0 -10
3 -2 11 16 16 51 -10 47 -34 -2 -15 0 -16 12 -6 8 6 14 8 14 4 0 -4 7 -2 15 5
12 10 13 16 4 26 -8 10 -16 11 -23 5 -14 -12 -41 2 -41 21 0 7 -9 13 -20 13
-11 0 -27 4 -35 9 -8 5 -12 5 -7 1z m27 -26 c0 8 3 11 6 8 4 -4 2 -13 -4 -20
-7 -8 -10 -16 -7 -19 3 -3 -1 -11 -10 -18 -12 -10 -16 -9 -21 4 -6 16 -8 16
-24 1 -12 -11 -20 -13 -25 -5 -3 5 -12 7 -18 3 -7 -3 -3 3 7 15 13 15 23 19
31 12 8 -7 18 -4 31 9 13 12 21 15 26 7 5 -7 8 -6 8 3z m-141 -35 c-6 -7 -15
-11 -21 -8 -5 3 -4 12 3 20 6 7 15 11 21 8 5 -3 4 -12 -3 -20z m229 0 c-1 -5
-9 -9 -16 -10 -10 -2 -11 1 -1 12 12 14 24 13 17 -2z"/>
<path d="M840 1620 c-11 -7 -11 -10 -2 -10 8 0 10 -5 6 -12 -4 -7 -3 -9 1 -5
7 6 17 37 12 37 -1 0 -9 -5 -17 -10z"/>
<path d="M786 1611 c-4 -5 -2 -12 3 -15 5 -4 12 -2 15 3 4 5 2 12 -3 15 -5 4
-12 2 -15 -3z"/>
<path d="M990 1599 c0 -5 5 -7 10 -4 6 3 10 8 10 11 0 2 -4 4 -10 4 -5 0 -10
-5 -10 -11z"/>
<path d="M1894 1686 c-4 -10 -13 -15 -20 -12 -7 3 -18 -3 -23 -12 -6 -9 -11
-12 -11 -7 0 11 -40 15 -40 4 0 -4 8 -13 17 -20 9 -8 14 -9 10 -3 -4 8 3 12
21 13 48 1 62 4 62 13 0 5 5 6 11 2 8 -4 7 -9 -2 -16 -11 -8 -10 -9 3 -5 12 5
16 1 13 -14 -3 -13 0 -19 8 -16 7 2 11 11 9 21 -2 9 2 16 8 16 5 0 9 -6 8 -12
-2 -7 3 -12 11 -10 12 3 12 0 2 -12 -7 -9 -17 -13 -22 -10 -5 3 -9 1 -9 -4 0
-5 -7 -9 -15 -9 -8 0 -12 4 -9 9 10 15 -9 8 -21 -8 -11 -15 -12 -15 -12 0 0 9
5 16 11 16 6 0 4 5 -4 10 -11 7 -11 10 -2 10 7 0 10 5 6 11 -4 8 -9 7 -15 -2
-4 -7 -5 -17 -3 -21 3 -4 -1 -8 -8 -8 -9 0 -9 -3 2 -10 13 -8 12 -10 -2 -10
-10 0 -18 6 -18 12 0 7 -7 2 -16 -10 -19 -27 -9 -49 13 -30 9 7 27 13 40 13
23 1 23 0 7 -12 -10 -7 -15 -15 -12 -18 3 -4 14 4 24 17 11 13 31 24 47 24 28
1 37 -11 15 -19 -7 -2 -9 -8 -5 -13 5 -5 13 -1 18 8 12 21 43 12 34 -9 -4 -12
0 -14 17 -8 13 4 33 7 46 7 23 0 29 12 12 23 -5 3 -10 11 -10 17 0 6 3 8 7 5
3 -4 12 -2 18 3 9 8 20 2 39 -21 15 -17 30 -28 34 -25 3 4 0 11 -8 16 -10 6
-11 10 -3 10 7 0 10 7 7 15 -5 11 -10 13 -19 5 -8 -7 -12 -5 -12 5 0 8 5 11
10 8 6 -3 7 -2 4 4 -3 5 0 10 8 10 8 0 12 -5 8 -10 -3 -5 4 -4 16 3 12 6 19
15 16 21 -4 5 -2 9 4 9 5 0 11 -6 14 -12 2 -7 8 -9 13 -5 12 11 -17 28 -37 22
-9 -3 -22 1 -29 10 -12 15 -35 11 -25 -5 3 -4 -1 -13 -9 -19 -11 -9 -15 -8
-20 6 -7 16 -9 16 -25 -6 -18 -23 -41 -22 -41 2 0 7 4 6 10 -3 5 -8 12 -11 16
-8 3 4 -7 18 -22 32 -20 17 -31 21 -36 13 -4 -7 -8 -8 -8 -4 0 4 -9 3 -21 -3
-17 -10 -21 -8 -26 9 -3 11 -9 18 -15 15 -5 -3 -5 -11 2 -19 8 -9 7 -14 -4
-18 -9 -4 -23 4 -35 20 -18 22 -22 23 -27 9z m121 -26 c-3 -5 -2 -10 4 -10 5
0 13 5 16 10 9 14 25 2 19 -14 -3 -7 3 -19 12 -27 14 -12 19 -10 34 9 16 19
19 20 24 5 6 -14 8 -14 26 2 11 10 17 23 13 29 -4 6 4 2 18 -9 13 -11 26 -21
29 -23 2 -2 -7 -1 -22 2 -28 5 -54 -14 -40 -30 4 -4 0 -3 -9 4 -12 9 -18 9
-27 0 -7 -7 -12 -8 -12 -4 0 5 -7 3 -15 -4 -11 -9 -15 -9 -15 -1 0 7 -5 9 -11
5 -8 -4 -2 -12 15 -21 32 -17 33 -20 4 -18 -13 1 -26 -2 -29 -7 -3 -5 -9 -2
-12 7 -4 9 -3 13 3 10 6 -3 10 -2 10 4 0 15 -18 23 -25 11 -4 -7 -12 -7 -24 0
-10 5 -20 8 -23 7 -2 -1 7 8 20 19 l24 21 -24 -2 c-15 -2 -25 2 -25 11 0 7 3
11 7 9 3 -2 12 0 20 6 19 11 23 11 15 -1z"/>
<path d="M2019 1630 c-18 -20 -22 -31 -13 -34 6 -2 15 -2 19 2 4 4 11 8 16 8
5 1 12 2 15 3 4 0 1 8 -6 16 -6 8 -9 19 -5 25 11 18 1 10 -26 -20z m27 -12 c4
-7 4 -10 -1 -6 -4 4 -15 2 -24 -5 -14 -11 -14 -10 -2 6 16 20 18 21 27 5z"/>
<path d="M2285 1610 c-3 -5 -1 -10 4 -10 6 0 11 5 11 10 0 6 -2 10 -4 10 -3 0
-8 -4 -11 -10z"/>
<path d="M1795 1600 c3 -5 8 -10 11 -10 2 0 4 5 4 10 0 6 -5 10 -11 10 -5 0
-7 -4 -4 -10z"/>
<path d="M2194 1585 c7 -37 14 -42 14 -10 0 14 -5 28 -10 31 -5 3 -6 -7 -4
-21z"/>
<path d="M2250 1570 c0 -5 5 -10 11 -10 5 0 7 5 4 10 -3 6 -8 10 -11 10 -2 0
-4 -4 -4 -10z"/>
<path d="M633 1250 c-12 -18 -11 -19 12 -10 17 6 25 6 25 -1 0 -6 5 -7 11 -3
8 4 7 9 -2 15 -7 4 -16 6 -20 3 -4 -2 -9 0 -11 6 -2 6 -9 1 -15 -10z"/>
<path d="M773 1265 c0 -8 4 -12 9 -9 5 3 6 10 3 15 -9 13 -12 11 -12 -6z"/>
<path d="M973 1250 c6 -11 14 -20 17 -21 3 0 13 -2 22 -4 10 -2 22 4 28 13 5
10 10 14 11 10 1 -5 2 -11 3 -15 3 -17 18 -33 26 -28 5 3 12 1 15 -5 5 -8 11
-8 20 0 10 8 17 5 29 -12 9 -12 16 -18 16 -12 0 15 -35 45 -43 37 -11 -10 -8
12 3 25 7 9 7 9 -2 2 -7 -6 -16 -6 -25 1 -15 13 -18 -2 -3 -17 7 -7 6 -11 -4
-11 -8 0 -12 5 -9 10 3 6 1 7 -5 3 -8 -4 -10 -2 -6 7 3 8 -2 17 -11 21 -9 3
-18 0 -22 -9 -4 -11 -9 -13 -18 -5 -6 5 -15 7 -18 3 -4 -3 -7 -2 -7 4 0 6 -7
13 -15 17 -12 4 -13 2 -2 -14z"/>
<path d="M2035 1251 c3 -5 1 -12 -5 -16 -6 -4 -8 -11 -5 -16 4 -5 2 -9 -3 -9
-12 0 -33 25 -27 32 3 2 -1 5 -9 5 -8 0 -14 -9 -13 -19 1 -10 5 -18 10 -18 4
0 5 -5 1 -11 -4 -8 -9 -7 -15 2 -4 7 -6 16 -3 20 2 4 -3 12 -10 18 -12 10 -14
9 -12 -6 3 -18 -10 -33 -29 -33 -5 0 -4 4 3 9 10 6 10 10 -3 21 -13 11 -15 10
-10 -1 4 -10 -2 -15 -17 -16 -16 -2 -19 0 -9 6 8 5 10 14 6 22 -6 9 -10 8 -15
-7 -4 -10 -5 -23 -2 -29 9 -15 11 -35 4 -35 -4 0 -16 7 -26 15 -29 22 -31 19
-31 -25 0 -43 5 -48 28 -25 8 8 17 12 20 9 3 -3 10 3 15 13 10 19 12 25 12 44
0 8 4 8 15 -1 8 -6 20 -8 26 -4 8 5 10 2 5 -7 -4 -8 0 -5 10 6 14 17 16 18 10
2 -3 -11 -2 -16 4 -12 6 4 9 1 8 -7 -2 -7 3 -12 10 -10 9 1 11 -2 6 -10 -6 -9
-3 -9 9 1 11 9 17 10 17 2 0 -6 -6 -11 -12 -11 -9 0 -8 -4 2 -10 8 -5 10 -10
5 -10 -6 0 -16 5 -23 12 -9 9 -12 9 -12 -2 0 -13 -2 -13 -10 0 -8 13 -10 13
-10 1 0 -11 -4 -10 -13 4 -9 11 -19 15 -28 11 -8 -4 -6 -1 4 7 16 13 16 15 1
21 -21 8 -20 9 -21 -13 -1 -17 24 -50 34 -43 1 1 4 1 6 1 11 -5 74 -5 82 0 14
9 37 7 54 -3 9 -6 12 -5 8 1 -4 6 2 18 13 28 19 17 26 12 21 -17 0 -5 4 -8 10
-8 6 0 8 7 5 16 -3 8 -2 13 3 10 5 -3 12 1 15 10 9 24 7 28 -9 14 -17 -14 -36
-5 -29 15 4 8 11 12 18 8 17 -11 66 -12 66 -1 0 5 -10 6 -22 3 -13 -3 -18 -3
-12 2 7 5 0 16 -20 33 -17 13 -25 18 -19 9 10 -12 10 -18 1 -27 -14 -14 -32
-16 -24 -3 3 5 -1 14 -9 21 -9 8 -15 8 -15 2 0 -6 6 -12 13 -15 6 -3 2 -4 -9
-4 -12 1 -20 6 -17 13 2 6 -3 14 -12 18 -9 3 -13 2 -10 -3z m13 -22 c-2 -6 5
-13 15 -14 38 -7 44 -36 14 -62 -11 -10 -17 -13 -14 -6 4 6 3 14 -3 18 -5 3
-10 -1 -10 -9 0 -8 -8 -14 -19 -13 -10 0 -18 8 -17 17 1 10 -7 15 -22 14 -21
-1 -21 0 -7 16 8 9 12 21 8 26 -5 5 2 0 15 -10 13 -12 22 -14 23 -8 1 7 3 17
4 22 1 6 3 12 4 15 2 10 11 4 9 -6z m96 -20 c-3 -5 -10 -7 -15 -3 -5 3 -7 10
-3 15 3 5 10 7 15 3 5 -3 7 -10 3 -15z m-283 -46 c8 -10 9 -14 2 -10 -6 4 -15
2 -19 -4 -5 -8 -9 -7 -15 2 -17 28 11 39 32 12z"/>
<path d="M2045 1201 c8 -13 -21 -21 -33 -9 -6 6 -12 6 -17 -3 -5 -7 -4 -10 3
-5 6 3 17 -3 25 -14 13 -19 15 -19 21 -4 5 13 9 14 20 5 11 -9 16 -9 22 0 4 8
3 9 -4 5 -7 -4 -12 -2 -12 3 0 6 5 11 12 11 17 0 3 10 -21 15 -12 2 -19 0 -16
-4z"/>
<path d="M2150 1243 c0 -5 10 -13 23 -18 23 -10 31 -42 10 -38 -16 3 -47 -43
-39 -56 10 -15 44 -5 77 24 17 14 27 25 22 25 -4 0 -1 5 7 10 13 9 13 11 1 19
-8 5 -21 7 -29 3 -10 -3 -13 -1 -8 6 3 6 2 13 -4 17 -17 11 -60 16 -60 8z m55
-21 c-3 -3 -11 0 -18 7 -9 10 -8 11 6 5 10 -3 15 -9 12 -12z m6 -64 c-20 -20
-21 -21 -15 -3 7 18 6 18 -9 6 -9 -7 -15 -17 -12 -20 2 -4 -2 -8 -10 -8 -8 0
-15 4 -15 9 0 4 5 8 10 8 6 0 9 5 8 12 -2 7 2 12 9 13 7 0 18 6 25 13 23 23
31 -5 9 -30z"/>
<path d="M2260 1223 c1 -19 16 -32 29 -24 11 7 9 11 -8 20 -11 7 -21 8 -21 4z"/>
<path d="M1935 1170 c-3 -5 -5 -10 -3 -11 33 -8 38 -7 27 7 -14 17 -16 17 -24
4z"/>
<path d="M1906 851 c-4 -5 -2 -12 3 -15 5 -4 12 -2 15 3 4 5 2 12 -3 15 -5 4
-12 2 -15 -3z"/>
<path d="M1822 2017 c10 -8 15 -17 11 -21 -4 -4 1 -4 10 0 20 7 20 7 -13 23
-22 11 -23 10 -8 -2z"/>
<path d="M1948 1997 c-16 -33 -16 -34 7 -33 26 2 55 23 55 40 0 6 -4 5 -9 -3
-8 -12 -10 -12 -14 0 -2 8 -3 6 -2 -3 2 -10 0 -20 -5 -23 -11 -7 -21 22 -14
40 11 28 -2 15 -18 -18z"/>
<path d="M2097 2019 c7 -7 15 -10 18 -7 3 3 -2 9 -12 12 -14 6 -15 5 -6 -5z"/>
<path d="M2353 2012 c0 -35 -3 -43 -15 -36 -7 5 -8 3 -3 -5 4 -8 11 -9 16 -4
13 13 19 52 10 58 -5 2 -8 -3 -8 -13z"/>
<path d="M591 2004 c0 -11 3 -14 6 -6 3 7 2 16 -1 19 -3 4 -6 -2 -5 -13z"/>
<path d="M613 1999 c-2 -23 3 -25 10 -4 4 8 3 16 -1 19 -4 3 -9 -4 -9 -15z"/>
<path d="M937 2005 c-4 -8 -13 -15 -22 -15 -16 0 -20 -15 -6 -24 9 -6 46 42
38 50 -2 3 -7 -2 -10 -11z"/>
<path d="M1177 2014 c-10 -11 3 -24 23 -24 23 0 35 16 19 26 -8 4 -9 3 -5 -4
5 -8 -1 -12 -14 -12 -12 0 -18 5 -15 10 7 11 2 13 -8 4z"/>
<path d="M1287 2000 c-8 -11 -17 -17 -22 -12 -5 4 -5 1 -1 -5 10 -17 11 -17
30 12 19 30 13 34 -7 5z"/>
<path d="M1535 2010 c-4 -6 -11 -7 -17 -4 -6 4 -8 2 -4 -4 3 -5 0 -13 -6 -15
-9 -4 -8 -6 2 -6 8 -1 21 8 28 19 7 11 10 20 8 20 -3 0 -8 -5 -11 -10z"/>
<path d="M395 1990 c10 -11 20 -20 23 -20 3 0 -3 9 -13 20 -10 11 -20 20 -23
20 -3 0 3 -9 13 -20z"/>
<path d="M1243 1998 c-22 -28 -24 -38 -9 -32 9 3 16 2 16 -4 0 -5 8 -13 17
-16 13 -5 12 -1 -6 17 -22 24 -22 26 -4 36 10 6 13 11 7 11 -6 0 -16 -6 -21
-12z"/>
<path d="M1406 2002 c-3 -5 1 -9 9 -9 8 0 12 4 9 9 -3 4 -7 8 -9 8 -2 0 -6 -4
-9 -8z"/>
<path d="M1454 1998 c-4 -7 -4 -10 1 -6 4 4 15 2 24 -5 14 -11 14 -10 2 6 -16
20 -18 21 -27 5z"/>
<path d="M1750 2001 c0 -8 -6 -11 -15 -7 -13 4 -13 2 -5 -14 6 -11 16 -17 25
-14 17 7 18 13 5 34 -7 12 -10 12 -10 1z"/>
<path d="M2210 2000 c0 -5 5 -10 10 -10 6 0 10 5 10 10 0 6 -4 10 -10 10 -5 0
-10 -4 -10 -10z"/>
<path d="M2298 1998 c6 -6 18 -8 28 -6 14 3 12 5 -9 10 -19 3 -25 2 -19 -4z"/>
<path d="M535 1990 c-3 -6 1 -7 10 -4 8 4 23 0 33 -7 15 -13 16 -12 3 4 -15
19 -36 22 -46 7z"/>
<path d="M2435 1990 c-4 -6 -12 -7 -18 -4 -7 4 -8 3 -4 -1 13 -15 34 -14 34 1
0 17 -4 18 -12 4z"/>
<path d="M490 1983 c0 -4 5 -15 10 -23 8 -13 10 -13 10 2 0 9 -4 20 -10 23 -5
3 -10 3 -10 -2z"/>
<path d="M2380 1980 c-8 -5 -12 -12 -9 -15 4 -3 12 1 19 10 14 17 11 19 -10 5z"/>
<path d="M2490 1980 c0 -5 5 -10 11 -10 5 0 7 5 4 10 -3 6 -8 10 -11 10 -2 0
-4 -4 -4 -10z"/>
<path d="M438 1973 c7 -3 16 -2 19 1 4 3 -2 6 -13 5 -11 0 -14 -3 -6 -6z"/>
<path d="M1375 1969 c-4 -6 -5 -12 -2 -15 2 -3 7 2 10 11 7 17 1 20 -8 4z"/>
<path d="M1423 1970 c2 -8 10 -15 17 -15 7 0 15 7 17 15 4 13 3 13 -6 0 -10
-13 -12 -13 -22 0 -9 13 -10 13 -6 0z"/>
<path d="M2070 1976 c0 -2 7 -7 16 -10 8 -3 12 -2 9 4 -6 10 -25 14 -25 6z"/>
<path d="M393 1955 c0 -8 4 -12 9 -9 5 3 6 10 3 15 -9 13 -12 11 -12 -6z"/>
<path d="M1395 1960 c-8 -13 4 -32 16 -25 5 4 9 1 9 -6 0 -11 -16 -9 -53 6
-13 6 -16 3 -14 -11 4 -27 28 -67 34 -60 4 3 13 1 20 -6 8 -7 23 -12 33 -13
15 -1 17 2 9 17 -10 19 -4 42 10 34 4 -3 7 5 8 17 0 12 4 31 8 42 5 15 3 13
-10 -5 -10 -14 -20 -27 -22 -30 -3 -3 -9 3 -14 13 -6 9 -15 14 -21 11 -7 -5
-9 -1 -5 9 7 19 2 23 -8 7z m35 -46 c29 3 30 3 14 -15 -9 -10 -13 -22 -10 -28
10 -16 -11 -22 -24 -6 -7 8 -17 12 -24 8 -6 -3 -5 0 2 8 11 11 14 12 21 1 7
-11 9 -11 14 1 4 11 -2 14 -25 13 -22 -1 -32 4 -34 16 -2 14 1 16 16 8 10 -5
32 -8 50 -6z"/>
<path d="M1490 1960 c0 -5 5 -10 10 -10 6 0 10 5 10 10 0 6 -4 10 -10 10 -5 0
-10 -4 -10 -10z"/>
<path d="M2505 1940 c-3 -6 1 -7 9 -4 18 7 21 14 7 14 -6 0 -13 -4 -16 -10z"/>
<path d="M2466 1918 c3 -5 10 -6 15 -3 13 9 11 12 -6 12 -8 0 -12 -4 -9 -9z"/>
<path d="M2520 1925 c0 -2 6 -8 13 -14 10 -8 14 -7 14 2 0 8 -6 14 -14 14 -7
0 -13 -1 -13 -2z"/>
<path d="M274 1876 c1 -8 5 -18 8 -22 4 -3 5 1 4 10 -1 8 -5 18 -8 22 -4 3 -5
-1 -4 -10z"/>
<path d="M340 1871 c-8 -6 -18 -7 -22 -5 -4 3 -8 0 -8 -5 0 -15 13 -14 36 4
21 16 17 20 -6 6z"/>
<path d="M323 1831 c-20 -17 -21 -20 -6 -26 10 -3 14 -3 10 1 -4 4 0 16 10 26
21 23 14 23 -14 -1z"/>
<path d="M2574 1838 c-4 -5 -3 -12 0 -15 3 -4 6 -1 6 7 0 9 3 10 13 1 10 -8
14 -7 14 2 0 15 -25 18 -33 5z"/>
<path d="M256 1818 c3 -5 10 -6 15 -3 13 9 11 12 -6 12 -8 0 -12 -4 -9 -9z"/>
<path d="M2625 1780 c-3 -6 1 -7 9 -4 18 7 21 14 7 14 -6 0 -13 -4 -16 -10z"/>
<path d="M230 1760 c0 -5 5 -10 11 -10 5 0 7 5 4 10 -3 6 -8 10 -11 10 -2 0
-4 -4 -4 -10z"/>
<path d="M235 1720 c-3 -5 -1 -10 4 -10 6 0 11 5 11 10 0 6 -2 10 -4 10 -3 0
-8 -4 -11 -10z"/>
<path d="M2581 1684 c-8 -18 -8 -23 0 -18 8 4 9 0 4 -15 -3 -12 -2 -21 4 -21
16 0 24 21 12 33 -16 16 -14 25 7 29 15 3 15 4 1 10 -11 4 -20 -1 -28 -18z"/>
<path d="M235 1689 c-4 -6 -5 -12 -2 -15 2 -3 7 2 10 11 7 17 1 20 -8 4z"/>
<path d="M255 1670 c-3 -6 1 -7 9 -4 18 7 21 14 7 14 -6 0 -13 -4 -16 -10z"/>
<path d="M245 1639 c-6 -8 -4 -10 5 -4 10 6 12 4 6 -11 -6 -15 -5 -17 5 -6 9
9 10 15 2 23 -8 8 -13 7 -18 -2z"/>
<path d="M287 1613 c4 -9 2 -14 -3 -10 -6 3 -16 1 -24 -5 -12 -8 -12 -9 3 -4
19 6 24 -10 5 -17 -10 -4 -10 -6 0 -6 7 -1 10 -5 7 -11 -3 -5 -1 -10 5 -10 7
0 10 6 7 14 -3 7 1 23 9 34 12 17 12 21 -1 25 -10 4 -12 1 -8 -10z"/>
<path d="M2616 1618 c3 -4 16 -7 29 -6 30 3 23 11 -9 13 -14 0 -22 -3 -20 -7z"/>
<path d="M300 1574 c0 -8 5 -12 10 -9 6 4 8 11 5 16 -9 14 -15 11 -15 -7z"/>
<path d="M226 1558 c3 -5 10 -6 15 -3 13 9 11 12 -6 12 -8 0 -12 -4 -9 -9z"/>
<path d="M245 1539 c-4 -6 -4 -13 -1 -16 3 -4 6 -1 6 6 0 7 5 9 12 5 7 -4 8
-3 4 4 -9 15 -13 15 -21 1z"/>
<path d="M256 1496 c6 -15 4 -17 -6 -11 -9 6 -11 4 -5 -4 5 -9 10 -10 18 -2 8
8 7 14 -2 24 -10 10 -11 8 -5 -7z"/>
<path d="M2626 1495 c4 -8 11 -15 16 -15 6 0 5 6 -2 15 -7 8 -14 15 -16 15 -2
0 -1 -7 2 -15z"/>
<path d="M2592 1484 c-7 -8 -8 -14 -3 -14 10 0 25 19 20 25 -2 1 -10 -3 -17
-11z"/>
<path d="M215 1481 c-3 -5 -2 -12 3 -15 5 -3 9 1 9 9 0 17 -3 19 -12 6z"/>
<path d="M2616 1458 c3 -4 11 -5 19 -1 21 7 19 12 -4 10 -11 0 -18 -5 -15 -9z"/>
<path d="M196 1427 c3 -10 9 -15 12 -12 3 3 0 11 -7 18 -10 9 -11 8 -5 -6z"/>
<path d="M251 1404 c0 -11 3 -14 6 -6 3 7 2 16 -1 19 -3 4 -6 -2 -5 -13z"/>
<path d="M237 1369 c7 -7 15 -10 18 -7 3 3 -2 9 -12 12 -14 6 -15 5 -6 -5z"/>
<path d="M2634 1354 c1 -7 6 -17 10 -21 4 -4 6 -1 4 7 -2 9 3 14 12 12 8 -2
11 0 7 4 -13 14 -35 12 -33 -2z"/>
<path d="M2565 1350 c3 -4 16 -7 30 -7 32 0 26 8 -9 11 -14 2 -23 0 -21 -4z"/>
<path d="M2593 1315 c7 -7 14 -10 17 -6 3 3 9 9 13 12 4 4 -3 7 -17 7 -19 0
-22 -3 -13 -13z"/>
<path d="M2610 1280 c0 -5 5 -10 10 -10 6 0 10 5 10 10 0 6 -4 10 -10 10 -5 0
-10 -4 -10 -10z"/>
<path d="M215 1260 c-4 -6 -1 -9 7 -8 8 2 13 -6 12 -18 0 -21 18 -26 33 -9 4
4 2 5 -4 1 -8 -4 -13 -1 -13 7 0 21 -26 41 -35 27z"/>
<path d="M256 1257 c3 -10 9 -15 12 -12 3 3 0 11 -7 18 -10 9 -11 8 -5 -6z"/>
<path d="M2586 1253 c-8 -27 -3 -37 19 -40 18 -3 18 -2 3 8 -10 5 -18 15 -18
21 0 7 6 6 15 -2 22 -18 26 -8 5 13 -18 18 -18 18 -24 0z"/>
<path d="M826 1202 c-2 -4 4 -8 14 -8 10 0 16 4 14 8 -3 4 -9 8 -14 8 -5 0
-11 -4 -14 -8z"/>
<path d="M870 1190 c-8 -15 -8 -18 3 -14 8 3 14 11 14 19 0 20 -4 19 -17 -5z"/>
<path d="M953 1188 c-2 -18 0 -20 7 -8 12 18 13 30 2 30 -4 0 -9 -10 -9 -22z"/>
<path d="M2634 1203 c3 -3 -2 -11 -11 -18 -13 -9 -13 -14 -3 -20 9 -6 11 -4 5
5 -6 10 -4 12 8 7 10 -4 16 -2 14 6 -1 7 5 11 13 9 8 -2 11 0 7 4 -4 4 -15 9
-23 10 -9 1 -13 0 -10 -3z"/>
<path d="M235 1190 c-4 -6 -11 -7 -17 -4 -7 4 -8 2 -4 -5 6 -9 11 -9 22 0 14
11 18 19 10 19 -3 0 -8 -5 -11 -10z"/>
<path d="M716 1173 c-6 -14 -5 -15 5 -6 7 7 10 15 7 18 -3 3 -9 -2 -12 -12z"/>
<path d="M979 1188 c0 -2 -2 -13 -3 -26 -2 -15 1 -19 7 -13 7 7 15 5 24 -7 13
-15 13 -15 3 6 -6 12 -15 22 -21 22 -6 0 -7 5 -4 10 3 6 4 10 1 10 -3 0 -6 -1
-7 -2z"/>
<path d="M1016 1182 c-2 -4 0 -14 6 -22 8 -12 9 -12 4 3 -6 20 -3 21 27 6 21
-10 21 -10 3 5 -22 18 -32 20 -40 8z"/>
<path d="M834 1166 c1 -8 5 -18 8 -22 4 -3 5 1 4 10 -1 8 -5 18 -8 22 -4 3 -5
-1 -4 -10z"/>
<path d="M750 1155 c5 -7 6 -16 2 -21 -4 -5 -3 -5 2 -1 15 12 15 34 0 34 -9 0
-11 -4 -4 -12z"/>
<path d="M911 1147 c-8 -10 -7 -14 2 -14 8 0 14 6 14 14 0 7 -1 13 -2 13 -2 0
-8 -6 -14 -13z"/>
<path d="M679 1140 c-3 -20 -4 -25 -11 -36 -4 -6 -2 -11 5 -11 7 0 13 13 14
29 1 26 -5 40 -8 18z"/>
<path d="M1056 1134 c-6 -15 -4 -15 11 -3 15 12 16 12 11 -2 -4 -9 2 -20 13
-27 12 -8 19 -8 19 -2 0 5 -4 10 -9 10 -5 0 -11 9 -14 20 -6 24 -23 26 -31 4z"/>
<path d="M233 1125 c0 -8 4 -15 9 -15 4 0 8 4 8 9 0 6 -4 12 -8 15 -5 3 -9 -1
-9 -9z"/>
<path d="M290 1115 c-7 -8 -16 -13 -20 -10 -5 3 -5 -5 -2 -17 5 -19 7 -20 10
-5 2 10 8 14 15 11 7 -4 9 -4 5 1 -4 4 -3 14 3 22 6 7 9 13 6 13 -2 0 -10 -7
-17 -15z"/>
<path d="M816 1118 c3 -5 10 -6 15 -3 13 9 11 12 -6 12 -8 0 -12 -4 -9 -9z"/>
<path d="M1020 1105 c0 -2 6 -8 13 -14 10 -8 14 -7 14 2 0 8 -6 14 -14 14 -7
0 -13 -1 -13 -2z"/>
<path d="M2615 1099 c-5 -7 -4 -10 3 -5 17 10 25 -13 11 -32 -12 -15 -11 -15
6 1 18 16 18 18 3 33 -12 12 -17 13 -23 3z"/>
<path d="M1061 1093 c-1 -6 4 -15 9 -18 6 -4 8 -11 5 -16 -4 -5 -2 -9 4 -9 5
0 9 9 8 19 0 11 -4 18 -8 15 -4 -2 -10 2 -12 8 -4 9 -6 10 -6 1z"/>
<path d="M974 1062 c4 -3 14 -7 22 -8 9 -1 13 0 10 4 -4 3 -14 7 -22 8 -9 1
-13 0 -10 -4z"/>
<path d="M573 1035 c0 -8 4 -15 9 -15 4 0 8 7 8 15 0 8 -4 15 -8 15 -5 0 -9
-7 -9 -15z"/>
<path d="M673 1035 c0 -8 4 -12 9 -9 5 3 6 10 3 15 -9 13 -12 11 -12 -6z"/>
<path d="M750 1041 c0 -6 4 -13 10 -16 6 -3 7 1 4 9 -7 18 -14 21 -14 7z"/>
<path d="M634 1026 c1 -8 5 -18 8 -22 4 -3 5 1 4 10 -1 8 -5 18 -8 22 -4 3 -5
-1 -4 -10z"/>
<path d="M1073 1025 c0 -8 4 -12 9 -9 5 3 6 10 3 15 -9 13 -12 11 -12 -6z"/>
<path d="M2589 1023 c-13 -16 -12 -17 4 -4 9 7 17 15 17 17 0 8 -8 3 -21 -13z"/>
<path d="M275 1021 c-3 -5 2 -17 11 -25 19 -20 20 -20 20 3 0 12 -5 17 -15 13
-9 -3 -12 -1 -7 6 4 7 5 12 2 12 -3 0 -7 -4 -11 -9z"/>
<path d="M1015 1021 c-3 -5 -2 -12 3 -15 5 -3 9 1 9 9 0 17 -3 19 -12 6z"/>
<path d="M591 1007 c2 -1 13 -9 24 -17 19 -14 19 -14 6 3 -7 9 -18 17 -24 17
-6 0 -8 -1 -6 -3z"/>
<path d="M1118 1003 c7 -3 16 -2 19 1 4 3 -2 6 -13 5 -11 0 -14 -3 -6 -6z"/>
<path d="M2590 1000 c-9 -6 -10 -10 -3 -10 6 0 15 5 18 10 8 12 4 12 -15 0z"/>
<path d="M580 980 c-11 -7 -11 -10 -2 -10 7 0 11 -4 8 -8 -3 -5 1 -9 9 -9 8 0
15 4 15 9 0 4 -5 8 -11 8 -5 0 -7 5 -4 10 8 12 4 12 -15 0z"/>
<path d="M2610 980 c-9 -6 -10 -10 -3 -10 6 0 15 5 18 10 8 12 4 12 -15 0z"/>
<path d="M285 960 c-3 -5 -1 -10 5 -10 6 0 8 -5 4 -12 -4 -7 -3 -8 4 -4 6 4 9
13 5 21 -6 18 -10 19 -18 5z"/>
<path d="M1110 966 c0 -2 7 -7 16 -10 8 -3 12 -2 9 4 -6 10 -25 14 -25 6z"/>
<path d="M1115 929 c-4 -6 -5 -12 -2 -15 2 -3 7 2 10 11 7 17 1 20 -8 4z"/>
<path d="M1076 918 c3 -5 10 -6 15 -3 13 9 11 12 -6 12 -8 0 -12 -4 -9 -9z"/>
<path d="M1438 923 c10 -4 9 -9 -5 -20 -17 -13 -16 -13 5 -3 22 11 22 31 -1
29 -8 0 -8 -2 1 -6z"/>
<path d="M560 855 c-7 -8 -16 -13 -20 -10 -5 3 -11 2 -14 -3 -10 -17 24 -8 41
10 9 10 14 18 11 18 -3 0 -11 -7 -18 -15z"/>
<path d="M351 844 c0 -11 3 -14 6 -6 3 7 2 16 -1 19 -3 4 -6 -2 -5 -13z"/>
<path d="M397 853 c-4 -3 -7 -11 -7 -17 0 -6 5 -4 10 4 9 13 10 13 11 0 1 -8
1 -19 0 -23 -1 -5 3 -6 9 -2 7 4 7 12 0 26 -12 21 -14 22 -23 12z"/>
<path d="M2295 849 c-4 -5 1 -12 9 -15 9 -3 13 -10 10 -15 -3 -5 -1 -9 5 -9
14 0 9 39 -6 44 -7 3 -15 1 -18 -5z"/>
<path d="M310 839 c0 -5 5 -7 10 -4 6 3 10 8 10 11 0 2 -4 4 -10 4 -5 0 -10
-5 -10 -11z"/>
<path d="M1371 834 c0 -11 3 -14 6 -6 3 7 2 16 -1 19 -3 4 -6 -2 -5 -13z"/>
<path d="M1435 839 c-11 -16 -1 -19 13 -3 7 8 8 14 3 14 -5 0 -13 -5 -16 -11z"/>
<path d="M1646 842 c-4 -7 -2 -12 4 -12 6 0 8 -5 5 -11 -4 -6 2 -5 14 3 12 7
21 17 21 22 0 4 -6 3 -14 -3 -11 -9 -15 -9 -18 1 -3 9 -6 9 -12 0z"/>
<path d="M1707 832 c1 -8 3 -16 3 -18 0 -3 5 -2 10 1 6 3 10 14 10 23 0 13 -2
14 -9 3 -5 -7 -11 -9 -13 -5 -3 5 -3 3 -1 -4z"/>
<path d="M2341 834 c0 -11 3 -14 6 -6 3 7 2 16 -1 19 -3 4 -6 -2 -5 -13z"/>
<path d="M1230 830 c-9 -6 -10 -10 -3 -10 6 0 15 5 18 10 8 12 4 12 -15 0z"/>
<path d="M1175 820 c3 -5 8 -10 11 -10 2 0 4 5 4 10 0 6 -5 10 -11 10 -5 0 -7
-4 -4 -10z"/>
<path d="M1260 826 c0 -2 9 -6 20 -9 11 -3 18 -1 14 4 -5 9 -34 13 -34 5z"/>
<path d="M1315 821 c-3 -5 -2 -12 3 -15 5 -3 9 1 9 9 0 17 -3 19 -12 6z"/>
<path d="M1390 821 c0 -6 4 -13 10 -16 6 -3 7 1 4 9 -7 18 -14 21 -14 7z"/>
<path d="M1510 820 c0 -5 5 -10 10 -10 6 0 10 5 10 10 0 6 -4 10 -10 10 -5 0
-10 -4 -10 -10z"/>
<path d="M2220 809 c-18 -15 -19 -18 -5 -11 11 5 26 8 33 6 7 -1 8 0 2 3 -5 2
-8 9 -4 14 8 14 2 11 -26 -12z"/>
<path d="M1692 800 c0 -14 2 -19 5 -12 2 6 2 18 0 25 -3 6 -5 1 -5 -13z"/>
<path d="M2278 796 c-13 -18 -14 -23 -2 -23 8 0 12 3 9 5 -3 3 0 11 7 19 6 7
9 15 7 17 -2 2 -12 -6 -21 -18z"/>
<path d="M1374 796 c1 -8 5 -18 8 -22 4 -3 5 1 4 10 -1 8 -5 18 -8 22 -4 3 -5
-1 -4 -10z"/>
<path d="M1534 799 c-3 -6 -3 -13 0 -16 3 -4 6 -1 6 5 0 6 7 9 15 6 8 -4 15
-4 15 -1 0 11 -30 16 -36 6z"/>
<path d="M1665 799 c-4 -6 -5 -12 -2 -15 2 -3 7 2 10 11 7 17 1 20 -8 4z"/>
<path d="M1825 799 c-4 -6 -5 -12 -2 -15 2 -3 7 2 10 11 7 17 1 20 -8 4z"/>
<path d="M1935 800 c3 -5 8 -10 11 -10 2 0 4 5 4 10 0 6 -5 10 -11 10 -5 0 -7
-4 -4 -10z"/>
<path d="M2030 800 c0 -5 7 -7 15 -4 8 4 15 8 15 10 0 2 -7 4 -15 4 -8 0 -15
-4 -15 -10z"/>
<path d="M2150 801 c0 -10 29 -36 34 -30 1 2 -6 12 -16 22 -10 9 -18 13 -18 8z"/>
<path d="M2175 800 c3 -5 8 -10 11 -10 2 0 4 5 4 10 0 6 -5 10 -11 10 -5 0 -7
-4 -4 -10z"/>
<path d="M1719 773 c-12 -16 -12 -17 2 -6 9 7 20 9 24 5 5 -4 5 -1 1 6 -9 16
-11 15 -27 -5z"/>
<path d="M1878 783 c7 -3 16 -2 19 1 4 3 -2 6 -13 5 -11 0 -14 -3 -6 -6z"/>
<path d="M2120 775 c-7 -9 -11 -17 -9 -20 3 -2 10 5 17 15 14 24 10 26 -8 5z"/>
<path d="M1793 765 c0 -8 4 -12 9 -9 5 3 6 10 3 15 -9 13 -12 11 -12 -6z"/>
<path d="M1856 767 c3 -10 9 -15 12 -12 3 3 0 11 -7 18 -10 9 -11 8 -5 -6z"/>
<path d="M1929 763 c-13 -16 -12 -17 4 -4 16 13 21 21 13 21 -2 0 -10 -8 -17
-17z"/>
<path d="M1897 755 c-4 -8 -3 -16 1 -19 4 -3 9 4 9 15 2 23 -3 25 -10 4z"/>
<path d="M1956 753 c-6 -14 -5 -15 5 -6 7 7 10 15 7 18 -3 3 -9 -2 -12 -12z"/>
</g>
</svg>
